<?xml version="1.0" encoding="us-ascii" standalone="no"?><svg xmlns="http://www.w3.org/2000/svg" xmlns:xlink="http://www.w3.org/1999/xlink" contentStyleType="text/css" height="353px" preserveAspectRatio="none" style="width:234px;height:353px;background:#FFFFFF;" version="1.1" viewBox="0 0 234 353" width="234px" zoomAndPan="magnify"><defs/><g><rect fill="#F1F1F1" height="40" rx="12.5" ry="12.5" style="stroke:#181818;stroke-width:0.5;" width="65" x="85.5" y="7"/><text fill="#000000" font-family="sans-serif" font-size="14" lengthAdjust="spacing" textLength="55" x="90.5" y="31.8467">Cheater</text><rect fill="#F1F1F1" height="40" rx="12.5" ry="12.5" style="stroke:#181818;stroke-width:0.5;" width="54" x="96" y="107"/><text fill="#000000" font-family="sans-serif" font-size="14" lengthAdjust="spacing" textLength="44" x="101" y="131.8467">Draw1</text><rect fill="#F1F1F1" height="40" rx="12.5" ry="12.5" style="stroke:#181818;stroke-width:0.5;" width="54" x="7" y="107"/><text fill="#000000" font-family="sans-serif" font-size="14" lengthAdjust="spacing" textLength="44" x="12" y="131.8467">Draw2</text><rect fill="#F1F1F1" height="40" rx="12.5" ry="12.5" style="stroke:#181818;stroke-width:0.5;" width="63" x="80.5" y="207"/><text fill="#000000" font-family="sans-serif" font-size="14" lengthAdjust="spacing" textLength="53" x="85.5" y="231.8467">Highest</text><rect fill="#F1F1F1" height="40" rx="12.5" ry="12.5" style="stroke:#181818;stroke-width:0.5;" width="50" x="178" y="207"/><text fill="#000000" font-family="sans-serif" font-size="14" lengthAdjust="spacing" textLength="31" x="187.5" y="231.8467">Coin</text><rect fill="#F1F1F1" height="40" rx="12.5" ry="12.5" style="stroke:#181818;stroke-width:0.5;" width="58" x="128" y="307"/><text fill="#000000" font-family="sans-serif" font-size="14" lengthAdjust="spacing" textLength="48" x="133" y="331.8467">Winner</text><!--link cheater to draw2--><g id="link_cheater_draw2"><path d="M101.4,47.36 C86.68,64.54 69.1852,84.9548 54.4652,102.1248 " fill="none" id="cheater-to-draw2" style="stroke:#181818;stroke-width:1.0;"/><polygon fill="#181818" points="50.56,106.68,59.4546,102.4507,53.8143,102.884,53.381,97.2438,50.56,106.68" style="stroke:#181818;stroke-width:1.0;"/></g><!--link cheater to coin--><g id="link_cheater_coin"><path d="M132.35,47.27 C143.34,62.75 158.23,85.41 168,107 C183.28,140.74 192.5437,176.9995 197.8137,201.0095 " fill="none" id="cheater-to-coin" style="stroke:#181818;stroke-width:1.0;"/><polygon fill="#181818" points="199.1,206.87,201.0775,197.2217,198.0281,201.9863,193.2635,198.9368,199.1,206.87" style="stroke:#181818;stroke-width:1.0;"/></g><!--link draw1 to highest--><g id="link_draw1_highest"><path d="M120.83,147.36 C118.9,164.54 116.7702,183.5475 114.8402,200.7175 " fill="none" id="draw1-to-highest" style="stroke:#181818;stroke-width:1.0;"/><polygon fill="#181818" points="114.17,206.68,119.1503,198.1831,114.7285,201.7113,111.2004,197.2895,114.17,206.68" style="stroke:#181818;stroke-width:1.0;"/></g><!--link draw2 to highest--><g id="link_draw2_highest"><path d="M49.41,147.36 C63.08,164.54 79.2245,184.8147 92.8845,201.9847 " fill="none" id="draw2-to-highest" style="stroke:#181818;stroke-width:1.0;"/><polygon fill="#181818" points="96.62,206.68,94.147,197.1467,93.5071,202.7672,87.8866,202.1273,96.62,206.68" style="stroke:#181818;stroke-width:1.0;"/></g><!--link highest to winner--><g id="link_highest_winner"><path d="M120.89,247.36 C128.78,264.54 137.7347,284.0581 145.6247,301.2281 " fill="none" id="highest-to-winner" style="stroke:#181818;stroke-width:1.0;"/><polygon fill="#181818" points="148.13,306.68,148.0067,296.8319,146.0423,302.1367,140.7375,300.1723,148.13,306.68" style="stroke:#181818;stroke-width:1.0;"/></g><!--link coin to winner--><g id="link_coin_winner"><path d="M193.91,247.36 C185.85,264.54 176.6796,284.0787 168.6196,301.2487 " fill="none" id="coin-to-winner" style="stroke:#181818;stroke-width:1.0;"/><polygon fill="#181818" points="166.07,306.68,173.5153,300.2327,168.1947,302.1539,166.2735,296.8332,166.07,306.68" style="stroke:#181818;stroke-width:1.0;"/></g><!--SRC=[LOun3eGm30JxlCAYfu07q735_U3gY5Z4nGMKM4By7d2SA5HUpzfUUt88-D_v18TfYRGpRS6On9OHkjdZNMC7Di6ITR4-qHw36EvHBHuh7Wl-qkeniHW-wvgnKSW1joZmHo5exY7I6Cs7lf_qTajaMJwHjcJ8u8je5QQddzsclm00]--></g></svg>