<?xml version="1.0" encoding="us-ascii" standalone="no"?><svg xmlns="http://www.w3.org/2000/svg" xmlns:xlink="http://www.w3.org/1999/xlink" contentStyleType="text/css" height="353px" preserveAspectRatio="none" style="width:236px;height:353px;background:#FFFFFF;" version="1.1" viewBox="0 0 236 353" width="236px" zoomAndPan="magnify"><defs/><g><rect fill="#F1F1F1" height="40" rx="12.5" ry="12.5" style="stroke:#181818;stroke-width:0.5;" width="68" x="85" y="7"/><text fill="#000000" font-family="sans-serif" font-size="14" lengthAdjust="spacing" textLength="58" x="90" y="31.8467">Cheater</text><rect fill="#F1F1F1" height="40" rx="12.5" ry="12.5" style="stroke:#181818;stroke-width:0.5;" width="55" x="96.5" y="107"/><text fill="#000000" font-family="sans-serif" font-size="14" lengthAdjust="spacing" textLength="45" x="101.5" y="131.8467">Draw1</text><rect fill="#F1F1F1" height="40" rx="12.5" ry="12.5" style="stroke:#181818;stroke-width:0.5;" width="54" x="7" y="107"/><text fill="#000000" font-family="sans-serif" font-size="14" lengthAdjust="spacing" textLength="44" x="12" y="131.8467">Draw2</text><rect fill="#F1F1F1" height="40" rx="12.5" ry="12.5" style="stroke:#181818;stroke-width:0.5;" width="65" x="79.5" y="207"/><text fill="#000000" font-family="sans-serif" font-size="14" lengthAdjust="spacing" textLength="55" x="84.5" y="231.8467">Highest</text><rect fill="#F1F1F1" height="40" rx="12.5" ry="12.5" style="stroke:#181818;stroke-width:0.5;" width="50" x="180" y="207"/><text fill="#000000" font-family="sans-serif" font-size="14" lengthAdjust="spacing" textLength="32" x="189" y="231.8467">Coin</text><rect fill="#F1F1F1" height="40" rx="12.5" ry="12.5" style="stroke:#181818;stroke-width:0.5;" width="61" x="127.5" y="307"/><text fill="#000000" font-family="sans-serif" font-size="14" lengthAdjust="spacing" textLength="51" x="132.5" y="331.8467">Winner</text><!--link cheater to draw2--><g id="link_cheater_draw2"><path d="M102.2067,47.362 C88.4693,63.2 68.992,85.656 54.3659,102.519 " fill="none" id="cheater-to-draw2" style="stroke:#181818;stroke-width:1.0;"/><polygon fill="#181818" points="50.7584,106.679,59.6769,102.5005,54.0343,102.9016,53.6331,97.259,50.7584,106.679" style="stroke:#181818;stroke-width:1.0;"/></g><!--link cheater to coin--><g id="link_cheater_coin"><path d="M133.301,47.286 C144.266,62.785 159.142,85.45 169,107 C183.418,138.519 193.912,177.318 199.733,201.862 " fill="none" id="cheater-to-coin" style="stroke:#181818;stroke-width:1.0;"/><polygon fill="#181818" points="200.904,206.876,202.7521,197.2021,199.7668,202.007,194.9618,199.0217,200.904,206.876" style="stroke:#181818;stroke-width:1.0;"/></g><!--link draw1 to highest--><g id="link_draw1_highest"><path d="M121.629,147.362 C119.723,162.932 117.033,184.897 114.981,201.657 " fill="none" id="draw1-to-highest" style="stroke:#181818;stroke-width:1.0;"/><polygon fill="#181818" points="114.366,206.679,119.4293,198.2313,114.9732,201.716,111.4885,197.2599,114.366,206.679" style="stroke:#181818;stroke-width:1.0;"/></g><!--link draw2 to highest--><g id="link_draw2_highest"><path d="M49.4103,147.362 C62.0164,163.2 79.8897,185.656 93.3113,202.519 " fill="none" id="draw2-to-highest" style="stroke:#181818;stroke-width:1.0;"/><polygon fill="#181818" points="96.6217,206.679,94.148,197.1459,93.5085,202.7664,87.8879,202.1269,96.6217,206.679" style="stroke:#181818;stroke-width:1.0;"/></g><!--link highest to winner--><g id="link_highest_winner"><path d="M121.088,247.3616 C128.46,263.0659 138.885,285.2762 146.777,302.0894 " fill="none" id="highest-to-winner" style="stroke:#181818;stroke-width:1.0;"/><polygon fill="#181818" points="148.931,306.6786,148.7273,296.8318,146.8063,302.1525,141.4856,300.2314,148.931,306.6786" style="stroke:#181818;stroke-width:1.0;"/></g><!--link coin to winner--><g id="link_coin_winner"><path d="M195.714,247.3616 C188.183,263.0659 177.531,285.2762 169.467,302.0894 " fill="none" id="coin-to-winner" style="stroke:#181818;stroke-width:1.0;"/><polygon fill="#181818" points="167.266,306.6786,174.7644,300.2932,169.4281,302.1702,167.551,296.8339,167.266,306.6786" style="stroke:#181818;stroke-width:1.0;"/></g><!--SRC=[LOun3eGm30JxlCAYfu07q735_U3gY5Z4nGMKM4By7d2SA5HUpzfUUt88-D_v18TfYRGpRS6On9OHkjdZNMC7Di6ITR4-qHw36EvHBHuh7Wl-qkeniHW-wvgnKSW1joZmHo5exY7I6Cs7lf_qTajaMJwHjcJ8u8je5QQddzsclm00]--></g></svg>